<svg xmlns="http://www.w3.org/2000/svg" version="1.1" xmlns:xlink="http://www.w3.org/1999/xlink" xmlns:svgjs="http://svgjs.dev/svgjs" width="1000" height="1000" viewBox="0 0 1000 1000"><rect width="1000" height="1000" fill="#282634"></rect><g transform="matrix(0.7,0,0,0.7,150,281.25)"><svg viewBox="0 0 512 320" data-background-color="#282634" preserveAspectRatio="xMidYMid meet" height="625" width="1000" xmlns="http://www.w3.org/2000/svg" xmlns:xlink="http://www.w3.org/1999/xlink"><g id="tight-bounds" transform="matrix(1,0,0,1,0,0)"><svg viewBox="0 0 512 320" height="320" width="512"><g><svg></svg></g><g><svg viewBox="0 0 512 320" height="320" width="512"><g><path d="M96 160c0-88.366 71.634-160 160-160 88.366 0 160 71.634 160 160 0 88.366-71.634 160-160 160-88.366 0-160-71.634-160-160z" fill="#ff4057" fill-rule="nonzero" stroke="none" stroke-width="1" stroke-linecap="butt" stroke-linejoin="miter" stroke-miterlimit="10" stroke-dasharray="" stroke-dashoffset="0" font-family="none" font-weight="none" font-size="none" text-anchor="none" style="mix-blend-mode: normal" data-fill-palette-color="tertiary"></path></g><g transform="matrix(1,0,0,1,174.96348645465253,80)"><svg viewBox="0 0 162.07302709069492 160" height="160" width="162.07302709069492"><g><svg viewBox="0 0 162.07302709069492 160" height="160" width="162.07302709069492"><g><svg viewBox="0 0 162.07302709069492 160" height="160" width="162.07302709069492"><g id="textblocktransform"><svg viewBox="0 0 162.07302709069492 160" height="160" width="162.07302709069492" id="textblock"><g><svg viewBox="0 0 162.07302709069492 160" height="160" width="162.07302709069492"><g transform="matrix(1,0,0,1,0,0)"><svg width="162.07302709069492" viewBox="2.25 -36.5 43 42.45" height="160" data-palette-color="#282634"><path d="M26.8-19.25L26.8-19.25Q27.7-19.25 28.1-19.65 28.5-20.05 29.35-21.35L29.35-21.35 35.45-30.65Q35.75-31.15 36.13-31.33 36.5-31.5 36.9-31.5L36.9-31.5 37.75-31.5Q38.45-31.5 38.78-31.13 39.1-30.75 39.1-29.95L39.1-29.95 39.1-4.5 38.6-4.5 38.6-29.95Q38.6-30.35 38.43-30.68 38.25-31 37.75-31L37.75-31 37-31Q36.65-31 36.4-30.9 36.15-30.8 35.85-30.3L35.85-30.3 29.75-21.1Q28.85-19.75 28.38-19.25 27.9-18.75 26.8-18.75L26.8-18.75Q25.7-18.75 25.23-19.25 24.75-19.75 23.85-21.1L23.85-21.1 17.75-30.3Q17.45-30.8 17.18-30.9 16.9-31 16.55-31L16.55-31 15.8-31Q15.3-31 15.15-30.68 15-30.35 15-29.95L15-29.95 15-4.5 14.5-4.5 14.5-29.95Q14.5-30.75 14.83-31.13 15.15-31.5 15.8-31.5L15.8-31.5 16.65-31.5Q17.05-31.5 17.45-31.33 17.85-31.15 18.15-30.65L18.15-30.65 24.25-21.35Q25.1-20.05 25.5-19.65 25.9-19.25 26.8-19.25ZM11 0L18.45 0Q19.4 0 19.83-0.43 20.25-0.85 20.25-1.8L20.25-1.8 20.25-19.4 23.2-13.95Q23.65-13.1 24.28-12.73 24.9-12.35 25.85-12.35L25.85-12.35 27.85-12.35Q28.8-12.35 29.43-12.73 30.05-13.1 30.5-13.95L30.5-13.95 33.45-19.4 33.45-1.8Q33.45-0.85 33.88-0.43 34.3 0 35.25 0L35.25 0 42.95 0Q43.9 0 44.33-0.43 44.75-0.85 44.75-1.8L44.75-1.8 44.75-34.2Q44.75-35.15 44.33-35.58 43.9-36 42.95-36L42.95-36 34.85-36Q34.05-36 33.52-35.65 33-35.3 32.55-34.5L32.55-34.5 28.1-26.35Q27.85-25.9 27.68-25.7 27.5-25.5 27.2-25.5L27.2-25.5 26.75-25.5Q26.45-25.5 26.28-25.7 26.1-25.9 25.85-26.35L25.85-26.35 21.35-34.5Q20.9-35.3 20.38-35.65 19.85-36 19.05-36L19.05-36 11-36Q10.05-36 9.63-35.58 9.2-35.15 9.2-34.2L9.2-34.2 9.2-1.8Q9.2-0.85 9.63-0.43 10.05 0 11 0L11 0ZM20.05 0.05L20.05 0.05 13.55 5.45Q13.35 5.65 12.93 5.8 12.5 5.95 12 5.95L12 5.95 4.55 5.95Q3.35 5.95 2.8 5.4 2.25 4.85 2.25 3.65L2.25 3.65 2.25-28.75Q2.25-29.4 2.43-29.85 2.6-30.3 2.95-30.6L2.95-30.6 9.4-36.05Q9.65-36.25 10.08-36.38 10.5-36.5 11-36.5L11-36.5 19.05-36.5Q20-36.5 20.63-36.1 21.25-35.7 21.8-34.75L21.8-34.75 25.2-28.5 25.65-29.3Q25.85-29.65 26.08-29.98 26.3-30.3 26.55-30.5L26.55-30.5 33-35.9Q33.4-36.2 33.83-36.35 34.25-36.5 34.85-36.5L34.85-36.5 42.95-36.5Q44.15-36.5 44.7-35.95 45.25-35.4 45.25-34.2L45.25-34.2 45.25-1.8Q45.25-1.15 45.08-0.7 44.9-0.25 44.55 0.05L44.55 0.05 38.05 5.45Q37.85 5.65 37.43 5.8 37 5.95 36.5 5.95L36.5 5.95 28.8 5.95Q27.55 5.95 27.03 5.4 26.5 4.85 26.5 3.65L26.5 3.65 26.5-9.55 23.55-7.1Q23.15-6.75 22.63-6.58 22.1-6.4 21.4-6.4L21.4-6.4 20.75-6.4 20.75-1.8Q20.75-1.15 20.58-0.7 20.4-0.25 20.05 0.05Z" opacity="1" transform="matrix(1,0,0,1,0,0)" fill="#282634" class="undefined-text-0" data-fill-palette-color="quaternary" id="text-0"></path></svg></g></svg></g></svg></g></svg></g><g></g></svg></g></svg></g></svg></g><defs></defs></svg><rect width="512" height="320" fill="none" stroke="none" visibility="hidden"></rect></g></svg></g></svg>