<?xml version="1.0" encoding="UTF-8"?>
<svg xmlns="http://www.w3.org/2000/svg" width="443" height="265" viewBox="0 0 443 265" fill="none">
  <path opacity="0.5" d="M200.71 64.5792C200.71 64.5792 195.954 25.0964 175.54 1.53427C172.827 -1.59709 167.634 0.396537 167.722 4.52269C167.723 4.59142 167.725 4.66109 167.728 4.73149C167.992 11.7747 190.849 41.484 200.71 64.5792Z" fill="#C4F2E5"></path>
  <path opacity="0.5" d="M203.191 75.8825C203.191 75.8825 182.849 26.5325 148.103 4.70699C145.985 3.37616 143.115 3.8587 141.695 5.90774C140.77 7.24214 140.354 9.32685 141.392 12.5819C144.16 21.262 182.912 50.4794 203.191 75.8825Z" fill="#C4F2E5"></path>
  <path d="M153.966 47.4049C153.966 47.4049 152.678 77.6851 147.007 77.0994C141.337 76.5139 150.897 43.4612 150.897 43.4612C150.897 43.4612 126.729 24.2293 115.813 22.7962C115.813 22.7962 126.05 55.0094 120.699 53.0586C115.349 51.1077 103.125 18.0776 103.125 18.0776C103.125 18.0776 76.4288 6.53747 68.1128 21.8903C59.7966 37.2432 65.1094 47.0993 69.0023 49.0744C72.895 51.0495 99.4937 56.8113 98.0052 60.0661C96.5167 63.3207 77.3282 64.6601 68.0605 59.2896C68.0605 59.2896 72.7631 88.7901 87.5475 90.754C102.332 92.7176 108.889 84.8739 118.003 86.2521C127.118 87.6302 133.101 91.5255 128.064 92.8843C123.027 94.2432 108.25 89.1494 99.5899 93.5783C90.9296 98.0074 84.1952 100.414 96.9868 106.236C109.778 112.058 134.286 115.9 141.507 106.77C141.822 106.372 142.122 105.992 142.41 105.628C141.92 106.407 141.507 106.77 141.507 106.77C143.649 108.773 145.764 116.459 147.115 122.294C147.273 123.27 147.565 124.638 148.036 126.513V126.513C148.209 127.351 148.344 128.036 148.436 128.513C150.419 141.343 143.16 161.04 143.16 161.04L145.851 162.464C156.997 143.494 149.777 124.142 149.777 124.142C145.664 109.166 148.728 97.6405 148.728 97.6405C148.728 97.6405 177.917 89.2498 170.421 67.0206C170.422 67.0199 163.578 52.8545 153.966 47.4049Z" fill="#99E8D3"></path>
  <path d="M384.885 40.9363C384.064 23.8756 355.531 22.9227 355.531 22.9227C355.531 22.9227 330.655 47.0349 325.09 46.5236C319.526 46.0123 342.297 21.7924 342.297 21.7924C332.029 18.496 302.459 25.4055 302.459 25.4055C302.459 25.4055 296.846 58.6464 291.579 56.7933C286.313 54.9404 298.065 27.6115 298.065 27.6115C287.241 28.4139 275.155 38.0851 275.155 38.0851C259.06 54.6184 281.313 74.247 281.313 74.247C281.313 74.247 279.117 85.7251 269.102 97.2552L269.102 97.2555C269.102 97.2555 266.961 99.3205 264.418 103.07L267.186 103.674C267.576 102.988 267.983 102.331 268.41 101.709C268.412 101.703 268.414 101.7 268.418 101.697C268.425 101.688 268.431 101.68 268.437 101.671C268.721 101.288 269.128 100.744 269.631 100.084C269.631 100.083 269.632 100.082 269.633 100.081C269.633 100.079 269.635 100.08 269.635 100.078C270.845 98.622 271.686 97.5347 272.242 96.7385C272.244 96.7361 272.245 96.7335 272.247 96.7309C275.925 92.1338 281.067 86.22 283.815 85.3439C283.815 85.3439 283.603 84.8499 283.502 83.9562C283.602 84.3985 283.706 84.8599 283.815 85.3439C286.317 96.4407 309.636 103.289 323.432 103.487C337.227 103.685 332.294 98.7397 326.517 91.1999C320.741 83.6601 305.498 81.988 301.62 78.6795C297.742 75.3712 304.694 74.4268 313.345 77.0186C321.995 79.6103 324.457 89.2916 338.374 93.7362C352.291 98.1808 369.01 74.0465 369.01 74.0465C358.524 74.9229 342.117 65.7143 342.186 62.2124C342.255 58.7106 368.24 64.7345 372.526 64.6149C376.81 64.4958 385.707 57.9969 384.885 40.9363Z" fill="#D5F6ED"></path>
  <path d="M283.871 48.7014L272.711 74.7777L250.744 126.102C250.497 126.002 250.251 125.906 250.003 125.81C243.642 123.345 236.721 121.992 229.481 121.992C224.104 121.992 218.904 122.738 213.98 124.129C211.57 124.812 209.224 125.649 206.956 126.629L203.793 120.508L203.789 120.501V120.499L203.786 120.494L181.307 76.959L168.281 51.7352C186.796 42.8943 207.555 37.9401 229.481 37.9401C248.703 37.9401 267.027 41.749 283.729 48.6431H283.731C283.776 48.6636 283.823 48.6814 283.871 48.7014Z" fill="#D5F6ED"></path>
  <path d="M183.528 145.481C183.332 145.753 183.138 146.028 182.945 146.305C176.736 155.282 173.098 166.146 173.094 177.849V177.876H88.2852C88.2852 150.377 96.2868 124.732 110.112 103.1L134.835 117.373L183.528 145.481Z" fill="#5D8E81"></path>
  <path d="M206.956 126.629C206.742 126.723 206.528 126.815 206.319 126.911C206.278 126.928 206.237 126.946 206.197 126.964C197.087 131.063 189.272 137.493 183.528 145.481L134.835 117.373L110.111 103.1C124.216 81.0335 144.378 63.146 168.281 51.7355L181.307 76.9592L203.786 120.494L203.789 120.499V120.501L203.793 120.508L206.956 126.629Z" fill="#C4F2E5"></path>
  <path d="M285.869 177.876V177.849C285.864 166.331 282.341 155.626 276.308 146.736C276.146 146.495 275.979 146.254 275.812 146.015L324.48 117.92L349.199 103.65C362.81 125.165 370.679 150.612 370.679 177.876L285.869 177.876Z" fill="#FF9358"></path>
  <path d="M349.199 103.65L324.48 117.92L275.813 146.015C269.651 137.23 261.008 130.28 250.888 126.163C250.841 126.141 250.792 126.123 250.744 126.103L272.71 74.7778L283.871 48.7014C310.96 59.9158 333.768 79.2566 349.199 103.65Z" fill="#FFA26E"></path>
  <path d="M250.887 126.163C250.84 126.141 250.79 126.123 250.743 126.102C250.495 126.002 250.249 125.906 250.001 125.81C243.64 123.345 236.719 121.992 229.479 121.992C224.102 121.992 218.903 122.738 213.978 124.129C211.568 124.812 209.222 125.649 206.954 126.629C206.74 126.723 206.526 126.814 206.316 126.911L181.305 76.9592C195.911 70.0941 212.241 66.2562 229.479 66.2562C244.798 66.2562 259.397 69.2881 272.709 74.7779C272.72 74.7824 250.887 126.163 250.887 126.163Z" fill="#C4F2E5"></path>
  <path d="M182.944 146.305C176.735 155.282 173.097 166.146 173.093 177.849H116.883C116.883 155.919 123.81 134.624 134.835 117.373L182.944 146.305Z" fill="#99E8D3"></path>
  <path d="M206.319 126.911C206.279 126.929 206.238 126.946 206.198 126.964C197.088 131.063 189.273 137.493 183.528 145.481C183.332 145.754 183.139 146.028 182.945 146.305L134.836 117.373C146.055 100.162 162.554 85.914 181.307 76.9592L206.319 126.911Z" fill="#AAECDA"></path>
  <path d="M341.419 177.849H285.771C285.767 166.202 282.279 155.378 276.307 146.389L324.462 117.994C335.206 135.343 341.419 155.861 341.419 177.849Z" fill="#FFA26E"></path>
  <path d="M276.307 146.736C276.144 146.495 275.978 146.254 275.811 146.015C269.65 137.23 261.006 130.28 250.887 126.163L272.709 74.7779C294.038 83.6079 312.186 98.8161 324.479 117.92C324.639 118.163 276.307 146.736 276.307 146.736Z" fill="#FFA97A"></path>
  <path d="M266.071 177.877H192.893C192.893 169.4 195.828 161.6 200.749 155.424C204.055 151.271 208.26 147.853 213.073 145.456C214.027 144.981 215.005 144.545 216.004 144.153C218.289 143.255 220.686 142.58 223.169 142.152C225.219 141.798 227.328 141.614 229.481 141.614C233.923 141.614 238.181 142.4 242.121 143.838C242.421 143.944 242.716 144.059 243.011 144.175C249.239 146.632 254.622 150.734 258.618 155.94C263.294 162.029 266.071 169.633 266.071 177.877Z" fill="#C4EAF4"></path>
  <path d="M253.768 177.877H205.193C205.193 171.625 207.598 165.933 211.538 161.653C213.225 159.822 215.19 158.251 217.369 157.007C218.719 156.236 220.152 155.59 221.648 155.084C223.995 154.293 226.503 153.847 229.11 153.81C229.234 153.806 229.356 153.806 229.479 153.806C232.186 153.806 234.786 154.244 237.218 155.054C237.55 155.164 237.878 155.281 238.202 155.405C241.965 156.84 245.274 159.176 247.864 162.146C251.543 166.366 253.768 171.863 253.768 177.877Z" fill="#95BEC9"></path>
  <path d="M230.974 175.251C229.843 175.638 228.587 175.712 227.342 175.397C227.147 175.347 226.955 175.29 226.769 175.223C226.58 175.156 226.397 175.082 226.22 175C223.728 173.851 222.243 171.204 222.607 168.473C222.612 168.426 222.624 168.379 222.639 168.335L223.415 165.872L223.413 165.87L226.461 156.177L229.913 145.202L235.438 127.637L237.368 121.501L237.368 121.494L237.369 121.493L237.37 121.489L247.98 87.7533C248.101 87.3642 248.509 87.1399 248.905 87.2396L250.205 87.5671C250.599 87.6672 250.846 88.0532 250.769 88.4501L242.828 129.928L239.282 148.45L236.988 160.431L235.19 169.823L234.937 171.145L234.883 171.424C234.875 171.473 234.86 171.52 234.843 171.567C234.151 173.343 232.706 174.663 230.974 175.251Z" fill="#30545D"></path>
  <path d="M226.315 167.645C226.891 166.173 228.562 165.442 230.048 166.013C231.533 166.584 232.27 168.24 231.694 169.712C231.118 171.184 229.447 171.915 227.961 171.344C226.476 170.773 225.739 169.117 226.315 167.645Z" fill="white"></path>
  <path d="M155.883 111.256H156.646L159.156 114.466V111.256H159.966V115.899H159.276L156.693 112.595V115.899H155.883L155.883 111.256Z" fill="white"></path>
  <path d="M160.963 113.577C160.963 112.271 161.98 111.176 163.419 111.176C164.858 111.176 165.862 112.257 165.862 113.577C165.862 114.884 164.845 115.978 163.406 115.978C161.967 115.978 160.963 114.897 160.963 113.577ZM164.999 113.577C164.999 112.675 164.336 111.926 163.406 111.926C162.475 111.926 161.826 112.662 161.826 113.577C161.826 114.479 162.489 115.229 163.419 115.229C164.349 115.229 164.999 114.493 164.999 113.577Z" fill="white"></path>
  <path d="M166.858 111.256H168.946C170.043 111.256 170.686 111.839 170.686 112.735C170.686 113.498 170.224 113.955 169.568 114.141L170.833 115.899H169.863L168.698 114.28H167.681V115.899H166.857L166.858 111.256ZM168.886 113.557C169.475 113.557 169.85 113.252 169.85 112.768C169.85 112.271 169.488 111.999 168.879 111.999H167.681V113.557H168.886Z" fill="white"></path>
  <path d="M171.697 111.256H172.574L174 113.451L175.425 111.256H176.302V115.899H175.479V112.569L174 114.758H173.973L172.507 112.582V115.899H171.697V111.256Z" fill="white"></path>
  <path d="M179.165 111.223H179.928L181.989 115.899H181.119L180.644 114.778H178.429L177.947 115.899H177.104L179.165 111.223ZM180.343 114.055L179.533 112.198L178.73 114.055H180.343Z" fill="white"></path>
  <path d="M182.793 111.256H183.616V115.156H186.079V115.899H182.793V111.256Z" fill="white"></path>
  <path d="M215.084 76.9326H218.558V77.662H215.907V78.8694H218.256V79.599H215.907V80.8462H218.591V81.5756H215.084V76.9326Z" fill="white"></path>
  <path d="M220.919 79.2143L219.28 76.9326H220.25L221.415 78.5976L222.586 76.9326H223.53L221.897 79.2012L223.596 81.5758H222.626L221.395 79.8181L220.156 81.5758H219.213L220.919 79.2143Z" fill="white"></path>
  <path d="M223.904 79.254C223.904 77.9341 224.901 76.853 226.321 76.853C227.184 76.853 227.706 77.1514 228.155 77.5759L227.626 78.1795C227.251 77.8347 226.849 77.6026 226.314 77.6026C225.417 77.6026 224.768 78.332 224.768 79.254C224.768 80.1627 225.417 80.9059 226.314 80.9059C226.889 80.9059 227.258 80.6735 227.659 80.302L228.188 80.8326C227.699 81.3368 227.164 81.6552 226.287 81.6552C224.921 81.6552 223.904 80.6005 223.904 79.254Z" fill="white"></path>
  <path d="M229.051 76.9326H232.524V77.662H229.874V78.8694H232.223V79.599H229.874V80.8462H232.558V81.5756H229.051L229.051 76.9326Z" fill="white"></path>
  <path d="M233.221 80.899L233.716 80.3154C234.164 80.7002 234.613 80.919 235.195 80.919C235.704 80.919 236.025 80.6866 236.025 80.3218C236.025 79.9903 235.838 79.8112 234.968 79.6055C233.97 79.3734 233.408 79.0813 233.408 78.2126C233.408 77.4169 234.078 76.8661 235.008 76.8661C235.69 76.8661 236.233 77.0718 236.708 77.4499L236.266 78.0666C235.844 77.7548 235.423 77.589 234.994 77.589C234.512 77.589 234.231 77.8345 234.231 78.1529C234.231 78.5108 234.445 78.6704 235.342 78.8825C236.333 79.1213 236.848 79.4728 236.848 80.2557C236.848 81.1247 236.159 81.6419 235.175 81.6419C234.459 81.6419 233.783 81.3965 233.221 80.899Z" fill="white"></path>
  <path d="M237.436 80.899L237.931 80.3154C238.379 80.7002 238.828 80.919 239.41 80.919C239.918 80.919 240.239 80.6866 240.239 80.3218C240.239 79.9903 240.052 79.8112 239.182 79.6055C238.185 79.3734 237.623 79.0813 237.623 78.2126C237.623 77.4169 238.292 76.8661 239.223 76.8661C239.905 76.8661 240.447 77.0718 240.922 77.4499L240.481 78.0666C240.059 77.7548 239.637 77.589 239.209 77.589C238.727 77.589 238.446 77.8345 238.446 78.1529C238.446 78.5108 238.66 78.6704 239.557 78.8825C240.548 79.1213 241.063 79.4728 241.063 80.2557C241.063 81.1247 240.374 81.6419 239.39 81.6419C238.674 81.6419 237.998 81.3965 237.436 80.899Z" fill="white"></path>
  <path d="M213.826 84.8915H214.716L215.834 88.3341L216.985 84.8784H217.681L218.832 88.3341L219.95 84.8915H220.813L219.181 89.5679H218.471L217.32 86.2316L216.168 89.5679H215.459L213.826 84.8915Z" fill="white"></path>
  <path d="M221.656 84.8915H225.13V85.6213H222.479V86.8285H224.829V87.5581H222.479V88.805H225.163V89.5346H221.656V84.8915Z" fill="white"></path>
  <path d="M226.186 84.8915H227.009V89.5346H226.186V84.8915Z" fill="white"></path>
  <path d="M228.055 87.2133C228.055 85.9131 229.059 84.8123 230.471 84.8123C231.287 84.8123 231.789 85.0377 232.271 85.4422L231.749 86.0591C231.388 85.754 231.033 85.5616 230.437 85.5616C229.574 85.5616 228.918 86.311 228.918 87.2133C228.918 88.1684 229.554 88.8716 230.511 88.8716C230.953 88.8716 231.354 88.7322 231.642 88.5201V87.6511H230.444V86.9412H232.438V88.8916C231.976 89.2828 231.314 89.6143 230.484 89.6143C229.018 89.6143 228.055 88.5793 228.055 87.2133Z" fill="white"></path>
  <path d="M233.508 84.8915H234.331V86.8218H236.566V84.8915H237.389V89.5346H236.566V87.5781H234.331V89.5346H233.508V84.8915Z" fill="white"></path>
  <path d="M239.746 85.6477H238.26V84.8915H242.062V85.6477H240.576V89.5346H239.746L239.746 85.6477Z" fill="white"></path>
  <path d="M271.203 113.577C271.203 112.271 272.22 111.176 273.659 111.176C275.098 111.176 276.102 112.257 276.102 113.577C276.102 114.884 275.085 115.978 273.646 115.978C272.207 115.978 271.203 114.897 271.203 113.577ZM275.239 113.577C275.239 112.675 274.577 111.926 273.646 111.926C272.716 111.926 272.066 112.662 272.066 113.577C272.066 114.479 272.729 115.229 273.659 115.229C274.59 115.229 275.239 114.493 275.239 113.577Z" fill="white"></path>
  <path d="M277.1 111.256H279.201C279.737 111.256 280.158 111.402 280.426 111.667C280.634 111.873 280.741 112.124 280.741 112.45C280.741 113.007 280.419 113.305 280.071 113.484C280.62 113.67 281.001 113.982 281.001 114.625C281.001 115.454 280.312 115.899 279.268 115.899H277.1V111.256ZM279.034 113.213C279.563 113.213 279.917 113.007 279.917 112.569C279.917 112.204 279.623 111.979 279.094 111.979H277.909V113.213H279.034ZM279.275 115.176C279.837 115.176 280.178 114.957 280.178 114.526C280.178 114.134 279.864 113.902 279.214 113.902H277.909V115.176H279.275V115.176Z" fill="white"></path>
  <path d="M281.93 111.256H285.403V111.985H282.753V113.193H285.102V113.922H282.753V115.169H285.437V115.899H281.93L281.93 111.256Z" fill="white"></path>
  <path d="M286.102 115.223L286.597 114.639C287.045 115.023 287.494 115.243 288.076 115.243C288.584 115.243 288.906 115.01 288.906 114.645C288.906 114.314 288.718 114.135 287.849 113.929C286.851 113.697 286.289 113.405 286.289 112.536C286.289 111.74 286.958 111.189 287.889 111.189C288.571 111.189 289.114 111.395 289.588 111.773L289.147 112.39C288.725 112.078 288.303 111.912 287.875 111.912C287.393 111.912 287.112 112.158 287.112 112.476C287.112 112.834 287.326 112.994 288.223 113.206C289.213 113.444 289.729 113.796 289.729 114.579C289.729 115.448 289.039 115.965 288.056 115.965C287.34 115.965 286.664 115.72 286.102 115.223Z" fill="white"></path>
  <path d="M290.746 111.256H291.569V115.899H290.746V111.256Z" fill="white"></path>
  <path d="M293.97 112.012H292.484V111.256H296.286V112.012H294.8V115.899H293.97V112.012Z" fill="white"></path>
  <path d="M298.534 114.068L296.674 111.256H297.644L298.956 113.312L300.281 111.256H301.225L299.364 114.048V115.899H298.534L298.534 114.068Z" fill="white"></path>
  <path d="M288.535 149.4H292.009V150.13H289.359V151.337H291.708V152.066H289.359V153.314H292.042V154.043H288.535L288.535 149.4Z" fill="white"></path>
  <path d="M294.371 151.682L292.731 149.4H293.701L294.866 151.065L296.037 149.4H296.981L295.348 151.669L297.048 154.043H296.077L294.846 152.285L293.608 154.043H292.664L294.371 151.682Z" fill="white"></path>
  <path d="M299.05 150.156H297.564V149.4H301.366V150.156H299.88V154.043H299.05V150.156Z" fill="white"></path>
  <path d="M302.234 149.4H304.323C305.42 149.4 306.063 149.984 306.063 150.879C306.063 151.642 305.601 152.099 304.945 152.285L306.21 154.043H305.239L304.075 152.425H303.057V154.043H302.234V149.4ZM304.262 151.702C304.851 151.702 305.226 151.397 305.226 150.913C305.226 150.415 304.864 150.143 304.255 150.143H303.057V151.702L304.262 151.702Z" fill="white"></path>
  <path d="M307.072 149.4H310.546V150.13H307.895V151.337H310.245V152.066H307.895V153.314H310.579V154.043H307.072V149.4Z" fill="white"></path>
  <path d="M311.557 149.4H312.434L313.859 151.596L315.285 149.4H316.161V154.043H315.338V150.713L313.859 152.902H313.832L312.366 150.727V154.043H311.557L311.557 149.4Z" fill="white"></path>
  <path d="M317.367 149.4H320.841V150.13H318.19V151.337H320.54V152.066H318.19V153.314H320.874V154.043H317.367L317.367 149.4Z" fill="white"></path>
  <path d="M321.85 149.4H322.673V153.3H325.136V154.043H321.85V149.4Z" fill="white"></path>
  <path d="M326.501 152.212L324.641 149.4H325.611L326.923 151.456L328.248 149.4H329.191L327.331 152.193V154.043H326.501V152.212Z" fill="white"></path>
  <path d="M293.748 159.681C293.748 158.374 294.765 157.28 296.204 157.28C297.643 157.28 298.647 158.361 298.647 159.681C298.647 160.987 297.63 162.082 296.191 162.082C294.752 162.082 293.748 161.001 293.748 159.681ZM297.784 159.681C297.784 158.779 297.121 158.029 296.191 158.029C295.261 158.029 294.611 158.765 294.611 159.681C294.611 160.583 295.274 161.332 296.204 161.332C297.135 161.332 297.784 160.596 297.784 159.681Z" fill="white"></path>
  <path d="M299.645 157.359H301.746C302.282 157.359 302.704 157.505 302.971 157.77C303.179 157.976 303.285 158.228 303.285 158.553C303.285 159.11 302.964 159.409 302.616 159.588C303.165 159.774 303.546 160.085 303.546 160.729C303.546 161.558 302.857 162.002 301.813 162.002H299.645L299.645 157.359ZM301.579 159.316C302.108 159.316 302.462 159.11 302.462 158.672C302.462 158.308 302.168 158.082 301.639 158.082H300.454V159.316H301.579ZM301.82 161.279C302.382 161.279 302.723 161.06 302.723 160.629C302.723 160.238 302.409 160.006 301.76 160.006H300.455V161.279H301.82Z" fill="white"></path>
  <path d="M304.477 157.359H307.95V158.089H305.3V159.296H307.649V160.026H305.3V161.273H307.983V162.002H304.477V157.359Z" fill="white"></path>
  <path d="M308.646 161.326L309.142 160.742C309.59 161.127 310.039 161.346 310.621 161.346C311.13 161.346 311.451 161.113 311.451 160.749C311.451 160.417 311.263 160.238 310.393 160.032C309.396 159.8 308.834 159.508 308.834 158.639C308.834 157.843 309.503 157.293 310.434 157.293C311.116 157.293 311.659 157.499 312.134 157.877L311.692 158.494C311.27 158.182 310.848 158.016 310.42 158.016C309.938 158.016 309.657 158.262 309.657 158.58C309.657 158.938 309.872 159.097 310.768 159.31C311.759 159.548 312.274 159.9 312.274 160.683C312.274 161.552 311.585 162.069 310.601 162.069C309.884 162.069 309.208 161.823 308.646 161.326Z" fill="white"></path>
  <path d="M313.291 157.359H314.114V162.002H313.291V157.359Z" fill="white"></path>
  <path d="M316.517 158.116H315.031V157.36H318.833V158.116H317.347V162.003H316.517V158.116Z" fill="white"></path>
  <path d="M321.079 160.172L319.219 157.359H320.189L321.501 159.416L322.826 157.359H323.77L321.909 160.152V162.002H321.08L321.079 160.172Z" fill="white"></path>
  <path d="M369.752 244.801C369.752 244.801 370.841 256.401 369.512 257.05L352.502 257.015C352.502 257.015 352.502 255.069 355.234 254.637C357.966 254.205 362.766 252.619 363.578 249.089C364.39 245.558 369.752 244.801 369.752 244.801Z" fill="#F2BEB7"></path>
  <path d="M371.951 214.879C371.326 231.773 370.068 247.758 370.068 247.758C370.068 247.758 369.261 248.613 366.708 249.327C364.869 249.842 363.58 249.089 363.58 249.089C363.58 249.089 362.392 239.631 362.024 237.394C361.634 235.02 345.562 187.472 347.643 169.941C349.104 157.634 355.864 149.606 355.864 149.606H369.133C369.133 149.606 369.149 158.704 370.275 170.919C370.594 174.381 371.002 178.094 371.524 181.92C372.529 189.302 372.414 202.341 371.951 214.879Z" fill="#F2BEB7"></path>
  <path d="M371.949 214.879C369.002 207.524 360.829 187.014 359.874 183.469C358.708 179.135 355.906 176.596 355.906 176.596L370.273 170.919C370.592 174.381 371 178.094 371.522 181.92C372.528 189.302 372.412 202.341 371.949 214.879Z" fill="#EDA8A2"></path>
  <path d="M366.648 86.2184C363.075 85.3351 360.775 86.9644 360.775 86.9644C350.775 88.1309 350.642 100.045 351.705 103.882C352.766 107.72 354.212 111.769 351.077 117.822C342.021 135.304 368.456 129.734 368.456 129.734C365.888 118.083 380.935 119 380.603 120.321C399.617 120.348 374.772 88.2273 366.648 86.2184Z" fill="#4A190C"></path>
  <path d="M346.163 164.308C346.163 164.308 347.858 168.144 347.922 169.204C347.986 170.263 347.479 171.948 347.123 172.112C346.768 172.275 346.575 170.095 346.415 170.214C346.255 170.333 346.834 173.797 346.246 174.158C345.659 174.519 343.448 171.261 343.127 169.729C342.807 168.198 343.133 165.69 343.133 165.69L346.163 164.308Z" fill="#F2BEB7"></path>
  <path d="M363.382 130.273C363.382 130.273 360.889 133.029 358.657 137.605C357.74 139.483 356.868 141.669 356.23 144.097C354.683 149.986 348.618 161.393 346.545 165.202C346.105 166.008 345.845 166.475 345.845 166.475L343.092 165.957C343.092 165.957 344.799 150.642 345.986 146.277C347.228 141.718 347.609 127.531 349.52 122.872C351.993 116.843 357.225 116.056 357.225 116.056L363.382 130.273Z" fill="#F2BEB7"></path>
  <path d="M358.657 137.605C357.741 139.483 356.869 141.669 356.23 144.097C354.683 149.986 351.809 158.16 346.545 165.202C346.545 165.202 347.411 155.76 349.186 152.864C350.962 149.968 351.179 131.676 351.179 131.676L358.657 137.605Z" fill="#EDA8A2"></path>
  <path d="M395.376 243.639C395.376 243.639 398.403 246.377 397.813 248.322C397.222 250.268 394.49 251.565 394.121 253.943C393.751 256.321 392.275 257.617 390.945 257.617C389.617 257.617 384.609 257.617 384.609 257.617C384.609 257.617 383.631 255.944 385.994 255.44C388.356 254.935 389.247 252.141 389.1 249.547C388.952 246.953 389.321 243.495 389.321 243.495L394.343 242.342L395.376 243.639Z" fill="#F2BEB7"></path>
  <path d="M376.641 149.155C376.641 149.155 387.326 153.936 389.787 166.711C392.469 180.631 385.913 196.17 387.399 202.726C388.885 209.281 394.344 221.896 394.344 242.342C394.344 242.342 393.776 243.514 392.024 244.138C391.464 244.337 389.919 244.88 389.19 245.046C389.19 245.046 388.505 242.448 387.557 240.468C383.276 231.525 370.952 211.894 370.349 206.964C369.922 203.475 366.21 180.383 358.114 166.833C356.17 163.58 359.307 150.644 359.307 150.644L376.641 149.155Z" fill="#F2BEB7"></path>
  <path d="M381.875 161.583C378.374 153.803 376.232 151.57 376.642 149.155C376.946 147.358 375.715 115.647 375.715 115.647C375.299 115.52 374.467 115.406 374.012 115.305C372.576 114.989 371.616 113.886 370.893 112.617C369.971 111 368.986 107.784 368.997 104.724L365.617 104.902L360.819 106.452C360.819 106.452 362.019 109.381 362.024 111.596C362.024 111.615 362.024 111.633 362.024 111.651C362.033 113.575 360.76 115.273 358.895 115.807C357.942 116.079 357.114 116.312 357.114 116.312C357.114 116.312 354.346 124.145 353.817 132.192C353.288 140.239 358.851 143.734 353.775 159.815C348.592 176.238 383.808 165.881 381.875 161.583Z" fill="#F2BEB7"></path>
  <path d="M360.984 107.081C360.984 107.081 362.017 109.381 362.023 111.596C366.253 110.974 368.099 107.609 369.013 105.494L360.984 107.081Z" fill="#EDA8A2"></path>
  <path d="M380.514 129.675C380.514 129.675 382.196 145.722 383.533 149.82C385.274 155.155 383.533 157.98 383.533 157.98L366.611 162.116L351.754 160.025C351.754 160.025 350.97 156.671 351.333 153.935C351.703 151.14 353.22 148.92 353.252 144.713C353.311 136.895 349.186 135.719 350.578 129.164C352.085 122.07 357.111 116.311 357.111 116.311C357.111 116.311 365.192 124.152 375.713 115.646L380.514 129.675Z" fill="#F2BEB7"></path>
  <path d="M361.079 110.354C361.079 110.354 370.827 108.218 369.392 102.222C367.956 96.2268 368.247 91.9132 361.963 93.0234C355.679 94.1335 355.022 96.7045 355.01 98.8211C354.998 100.938 358.507 110.755 361.079 110.354Z" fill="#F2BEB7"></path>
  <path d="M357.506 93.9214C357.506 93.9214 361.856 100.325 366.186 100.401C370.516 100.477 372.025 98.9752 372.025 98.9752C372.025 98.9752 368.303 97.2508 366.619 93.1037C366.619 93.1037 358.706 90.1008 357.506 93.9214Z" fill="#4A190C"></path>
  <path d="M358.301 94.3366C358.301 94.3366 356.506 95.5328 356.037 97.1495C355.579 98.7303 355.347 100.736 356.048 102.962C356.048 102.962 352.896 98.6559 354.496 95.4201C356.193 91.9891 358.301 94.3366 358.301 94.3366Z" fill="#4A190C"></path>
  <path d="M390.43 174.945C390.43 174.945 382.17 172.959 373.331 174.186C369.841 174.669 366.259 175.654 363.061 177.46C363.061 177.46 353.535 175.557 347.547 176.349C347.547 176.349 345.561 168.493 350.949 157.288C350.949 157.288 362.496 158.117 377.352 156.019C379.604 155.701 381.932 155.315 384.308 154.85C384.308 154.85 392.017 162.915 390.43 174.945Z" fill="#30545D"></path>
  <path d="M382.255 143.417C380.601 143.848 379.029 144.232 377.538 144.574C357.403 149.184 351.795 146.047 351.795 146.047C351.795 146.047 350.257 137.472 351.179 131.985C352.103 126.497 357.226 116.055 357.226 116.055L359.204 115.706C359.204 115.706 357.761 121.717 357.505 123.753C357.127 126.751 360.279 127.569 364.523 126.812C371.274 125.609 372.943 114.922 372.943 114.922C374.548 114.856 375.851 115.415 375.851 115.415C374.876 121.37 375.963 126.803 377.451 130.973C377.452 130.974 377.452 130.976 377.452 130.979C379.267 136.058 381.675 139.265 381.675 139.265L382.255 143.417Z" fill="#30545D"></path>
  <path d="M390.429 174.945C390.429 174.945 382.169 172.959 373.33 174.186C380.475 166.559 377.351 156.019 377.351 156.019C379.603 155.702 381.931 155.315 384.307 154.85C384.307 154.85 392.016 162.915 390.429 174.945Z" fill="#23393D"></path>
  <path d="M361.813 151.09C361.813 151.483 361.59 151.801 361.316 151.801C361.041 151.801 360.818 151.483 360.818 151.09C360.818 150.697 361.041 150.378 361.316 150.378C361.59 150.379 361.813 150.697 361.813 151.09Z" fill="#EDA8A2"></path>
  <path d="M375.852 115.415C375.852 115.415 380.32 116.589 381.951 119.333C383.583 122.077 393.055 136.405 394.344 143.57C395.632 150.734 386.711 168.112 386.711 168.112L384.308 166.475C384.308 166.475 385.368 146.529 384.308 144.485C383.071 142.096 381.676 139.266 381.676 139.266C381.676 139.266 376.319 127.128 376.185 126.533C374.717 120.003 375.852 115.415 375.852 115.415Z" fill="#F2BEB7"></path>
  <path d="M384.371 165.202C384.371 165.202 382.806 165.646 381.951 166.155C381.096 166.664 379.123 168.671 379.584 169.027C380.046 169.382 381.294 168.112 381.951 168.112C382.609 168.112 378.917 171.516 379.225 172.228C379.533 172.939 383.766 172.583 385.161 171.414C386.557 170.246 387.377 166.155 387.377 166.155L384.371 165.202Z" fill="#F2BEB7"></path>
  <path d="M382.253 143.417C380.599 143.848 379.027 144.232 377.537 144.574C375.255 140.268 377.726 131.792 377.451 130.979C379.265 136.059 381.673 139.266 381.673 139.266L382.253 143.417Z" fill="#23393D"></path>
  <path d="M423.988 257.008H316.941V260.862H423.988V257.008Z" fill="#30545D"></path>
  <path d="M324.388 260.862H321.004V263.316H324.388V260.862Z" fill="#23393D"></path>
  <path d="M416.366 260.862H412.982V263.316H416.366V260.862Z" fill="#23393D"></path>
  <path d="M343.322 199.234H313.459C312.805 199.234 312.215 198.848 311.96 198.251L309.239 191.9C308.938 191.196 309.459 190.416 310.23 190.416H340.671L344.008 198.206C344.217 198.694 343.856 199.234 343.322 199.234Z" fill="#23393D"></path>
  <path d="M343.584 199.234H315.271C314.389 199.234 313.592 198.712 313.247 197.907L310.424 191.315C310.241 190.889 310.557 190.416 311.024 190.416H340.692C341.549 190.416 342.324 190.924 342.659 191.706L344.985 197.136C345.411 198.131 344.675 199.234 343.584 199.234Z" fill="#30545D"></path>
  <path d="M342.728 196.425H314.657L312.504 191.394H340.574L342.728 196.425Z" fill="white"></path>
  <path d="M328.936 197.697H326.168V257.618H328.936V197.697Z" fill="#30545D"></path>
  <path d="M123.531 153.802V151.346H124.486V153.778C124.486 154.478 124.839 154.84 125.421 154.84C126.004 154.84 126.357 154.49 126.357 153.808V151.346H127.311V153.772C127.311 155.074 126.574 155.713 125.409 155.713C124.244 155.713 123.531 155.067 123.531 153.802Z" fill="white"></path>
  <path d="M128.285 151.346H129.165L131.198 153.993V151.346H132.14V155.645H131.328L129.227 152.912V155.645H128.285L128.285 151.346Z" fill="white"></path>
  <path d="M133.182 151.346H134.873C136.237 151.346 137.179 152.273 137.179 153.495C137.179 154.705 136.237 155.645 134.873 155.645H133.182V151.346ZM134.873 154.791C135.654 154.791 136.181 154.269 136.181 153.495C136.181 152.734 135.654 152.199 134.873 152.199H134.136V154.791H134.873Z" fill="white"></path>
  <path d="M138.027 151.346H141.299V152.187H138.975V153.059H141.02V153.901H138.975V154.803H141.33V155.645H138.027V151.346Z" fill="white"></path>
  <path d="M142.182 151.346H144.165C144.716 151.346 145.144 151.499 145.429 151.782C145.671 152.021 145.801 152.359 145.801 152.777C145.801 153.471 145.423 153.907 144.871 154.109L145.931 155.645H144.815L143.873 154.269H143.136V155.645H142.182V151.346ZM144.103 153.434C144.567 153.434 144.834 153.188 144.834 152.814C144.834 152.408 144.549 152.199 144.084 152.199H143.136V153.434H144.103Z" fill="white"></path>
  <path d="M146.234 151.346H147.257L148.156 154.257L149.128 151.333H149.946L150.919 154.257L151.818 151.346H152.816L151.335 155.675H150.504L149.525 152.863L148.546 155.675H147.716L146.234 151.346Z" fill="white"></path>
  <path d="M153.523 151.346H156.795V152.187H154.472V153.059H156.517V153.901H154.472V154.803H156.826V155.645H153.523V151.346Z" fill="white"></path>
  <path d="M157.719 151.346H158.673V155.645H157.719V151.346Z" fill="white"></path>
  <path d="M159.566 153.496C159.566 152.273 160.527 151.272 161.841 151.272C162.622 151.272 163.093 151.481 163.545 151.861L162.944 152.58C162.609 152.304 162.312 152.144 161.81 152.144C161.116 152.144 160.564 152.752 160.564 153.495C160.564 154.281 161.11 154.859 161.878 154.859C162.225 154.859 162.535 154.773 162.777 154.601V153.987H161.816V153.17H163.7V155.037C163.254 155.411 162.64 155.719 161.847 155.719C160.496 155.719 159.566 154.779 159.566 153.496Z" fill="white"></path>
  <path d="M164.617 151.346H165.572V153.047H167.331V151.346H168.286V155.645H167.331V153.919H165.572V155.645H164.617V151.346Z" fill="white"></path>
  <path d="M170.337 152.218H169.018V151.346H172.612V152.218H171.292V155.645H170.337V152.218Z" fill="white"></path>
  <path d="M112.43 114.078C112.43 114.078 108.538 107.401 100.113 111.956C94.1479 115.18 95.4054 120.6 93.8146 122.647C92.2239 124.693 83.3464 125.598 85.8996 136.227C87.4558 142.704 108 151.833 106.786 157.307C106.786 157.307 116.964 145.041 108.851 139.483C105.175 136.964 103.07 132.11 103.345 131.075C103.62 130.039 112.43 114.078 112.43 114.078Z" fill="#4A190C"></path>
  <path d="M105.012 146.173C105.012 146.173 110.642 169.257 116.169 173.872C117.917 175.332 121.353 178.266 124.214 180.213C126.79 181.966 127.648 182.235 127.648 182.235L125.26 184.488C125.26 184.488 124.778 183.569 123.22 182.995C119.096 181.476 110.719 178.924 108.492 176.329C105.425 172.755 97.0273 154.846 97.0273 154.846L105.012 146.173Z" fill="#F2BEB7"></path>
  <path d="M169.213 238.767C169.213 238.767 167.049 243.507 159.146 247.212C159.143 247.213 159.143 247.213 159.14 247.214C155.819 248.769 151.487 250.145 145.875 250.906C128.585 259.073 119.64 253.453 119.64 253.453C96.6237 244.284 87.119 213.535 103.817 200.992C108.7 197.324 113.613 196.226 117.915 196.319C125.447 196.486 132.814 194.303 139.016 190.068C142.56 187.65 147.275 185.896 153.389 186.306C156.229 186.496 158.851 187.233 161.229 188.413L161.507 188.551C176.396 196.216 181.376 221.434 169.213 238.767Z" fill="#FF2B2B"></path>
  <path d="M169.213 238.767C169.213 238.767 167.049 243.507 159.146 247.212C159.143 247.213 159.143 247.213 159.14 247.214C149.804 250.847 152.861 245.822 142.466 248.902C132.068 251.982 124.875 250.421 113.659 236.565C102.443 222.709 103.182 206.283 112.904 201.532C122.626 196.781 130.211 203.265 140.649 191.101C147.862 182.695 161.229 188.413 161.229 188.413L161.508 188.551C176.396 196.216 181.376 221.434 169.213 238.767Z" fill="#FF6B6B"></path>
  <path d="M143.081 169.665C149.394 174.568 153.356 179.628 153.356 179.628C153.356 179.628 142.355 182.471 138.212 179.689C133.323 176.404 131.53 176.603 126.891 176.483C126.891 176.483 136.768 164.762 143.081 169.665Z" fill="#30545D"></path>
  <path d="M129.534 197.76C125.492 193.152 124.814 186.151 124.957 181.089C125.07 177.062 125.916 171.419 126.354 168.726C126.447 168.156 127.191 167.991 127.524 168.463L128.405 169.715C129.289 170.969 129.578 172.542 129.191 174.022C128.002 178.573 125.994 188.981 130.359 195.766C130.85 196.53 130.254 198.586 129.534 197.76Z" fill="#30545D"></path>
  <path d="M151.854 191.456C151.854 191.456 160.003 191.471 161.884 197.016C163.766 202.561 158.193 203.646 154.569 201.603C150.945 199.561 147.383 192.569 151.854 191.456Z" fill="#FF9696"></path>
  <path d="M52.0964 186.727C52.1458 186.816 52.1986 186.907 52.2511 186.999C53.4831 189.12 56.3094 194.321 59.4225 200.012C60.8949 202.711 62.4367 205.522 63.8993 208.167C66.4194 212.731 68.712 216.795 70.0494 218.944C71.4097 221.127 72.4113 222.662 72.8164 223.276C72.8195 223.279 72.8195 223.279 72.8195 223.279C72.9414 223.468 72.9678 223.69 72.9513 223.912C72.8097 225.839 72.849 227.752 73.0403 229.635C74.918 248.149 87.5147 258.071 87.5147 258.071L91.2601 258.619C91.2601 258.619 85.9598 239.159 84.3983 228.157C84.1348 226.292 84.0194 224.781 84.1118 223.795C84.3884 220.929 83.8747 216.72 82.9028 211.889C81.1734 203.302 78.0011 192.764 75.2439 184.328C75.0692 183.79 69.8019 164.907 69.8019 164.907C65.3813 168.736 49.2562 170.316 49.2562 170.316C49.2562 170.316 46.5227 176.904 52.0964 186.727Z" fill="#95BEC9"></path>
  <path d="M99.1222 263.316H83.4902C83.4902 263.316 83.1153 260.955 83.9319 259.164C84.7142 257.445 85.8294 257.39 84.0743 254.696C85.0675 255.709 88.2607 256.129 90.5207 255.827C90.7976 256.272 92.3058 259.257 93.2308 259.916C94.2526 260.643 98.8076 260.384 99.1222 263.316Z" fill="#30545D"></path>
  <path d="M52.0977 186.727C52.1471 186.816 52.1999 186.907 52.2524 186.999C53.4844 189.12 60.1473 201.317 63.2604 207.008C59.6534 192.3 62.162 177.593 62.162 177.593L52.0977 186.727Z" fill="#63AAB4"></path>
  <path d="M110.3 113.138C110.402 112.731 101.371 117.183 100.914 117.687C96.6784 122.342 97.8859 128.418 100.309 128.476C101.864 128.514 101.562 131.075 101.562 131.075L118.877 123.816C118.877 123.816 116.792 111.768 110.3 113.138Z" fill="#4A190C"></path>
  <path d="M104.48 142.707C104.48 142.707 107.115 147.923 106.786 152.156C106.786 152.156 103.609 157.127 95.3691 158.385C95.3691 158.385 102.453 142.703 104.48 142.707Z" fill="#30545D"></path>
  <path d="M64.2836 171.47L64.3366 168.572C58.5114 169.3 44.2518 161.673 44.2518 161.673C44.2518 161.673 38.1576 165.69 37.3235 177.162C36.9163 182.761 34.3403 206.441 34.0554 213.512C33.9515 216.075 33.917 217.904 33.9052 218.635C33.9064 218.638 33.9064 218.64 33.9059 218.642C33.9023 218.865 33.7967 219.062 33.6583 219.238C32.4532 220.756 31.4074 222.365 30.502 224.033C21.6135 240.423 26.2616 262.694 26.2616 262.694L28.3258 262.173C28.3258 262.173 35.8415 239.087 40.7535 229.101C41.5872 227.407 42.3445 226.089 42.978 225.327C44.825 223.103 46.7726 219.328 48.6921 214.784C52.3206 206.194 64.2836 171.47 64.2836 171.47Z" fill="#95BEC9"></path>
  <path d="M38.6923 263.316H23.0605C23.0605 263.316 22.6856 260.955 23.5022 259.164C24.2845 257.445 25.51 256.663 25.2166 254.584C26.2098 255.597 27.8288 256.733 30.0886 256.431C30.3655 256.876 31.8761 259.257 32.8009 259.916C33.8227 260.643 38.3777 260.384 38.6923 263.316Z" fill="#30545D"></path>
  <path d="M94.315 161.712C92.2154 162.067 94.658 163.721 91.77 164.032C87.6596 164.477 83.4159 164.781 81.1926 165.659C80.3817 165.98 79.8394 166.376 79.6702 166.882C78.7068 169.753 72.6038 174.688 72.6038 174.688C45.3841 173.46 43.6309 161.437 43.6309 161.437C61.2968 144.433 76.3258 135.165 88.7469 134.018C91.77 133.738 95.8446 134.113 97.7564 134.957C102.101 136.874 104.481 142.707 104.481 142.707C104.481 142.707 102.293 160.363 94.315 161.712Z" fill="#30545D"></path>
  <path d="M91.7692 164.032C87.6588 164.477 83.415 164.781 81.1918 165.659C80.2832 152.205 86.6896 142.086 86.6896 142.086C86.6896 142.086 90.8688 158.941 91.7692 164.032Z" fill="#23393D"></path>
  <path d="M95.3153 139.808C95.3153 139.808 84.9788 139.249 83.1421 145.68C81.3054 152.112 86.588 177.784 87.7264 180.434C89.7989 185.258 99.627 199.657 99.627 199.657L103.197 198.584C103.197 198.584 96.8714 176.873 95.3695 174.792C93.0116 171.524 98.4091 142.606 95.3153 139.808Z" fill="#F2BEB7"></path>
  <path d="M101.741 194.32C101.741 194.32 102.925 197.777 103.348 199.025C103.57 199.681 104.246 200.088 104.486 200.378C105.181 201.22 107.204 203.257 107.24 204.45C107.24 204.45 107.138 204.979 106.704 204.883C106.348 204.803 105.273 203.796 104.47 203.494C104.221 203.4 103.948 203.547 103.894 203.806C103.783 204.345 103.651 205.348 103.943 206.234C104.19 206.981 104.766 210.516 104.13 210.535C102.02 210.596 100.837 207.499 100.149 205.815C99.7594 204.862 99.7539 202.778 99.8458 200.93C99.9382 199.075 97.4355 195.615 97.4355 195.615L101.741 194.32Z" fill="#F2BEB7"></path>
  <path d="M81.1035 154.281C81.1306 154.432 90.8852 156.06 96.9863 152.99C96.9863 152.99 102.083 137.165 94.7995 137.922C87.5156 138.68 83.2025 140.953 83.0189 144.409C82.8351 147.866 81.1035 154.281 81.1035 154.281Z" fill="#30545D"></path>
  <path d="M97.5219 136.066C98.2987 138.478 100.889 145.352 104.479 142.707C104.357 142.194 105.112 140.702 106.001 139.187C107.138 137.252 108.491 135.273 108.491 135.273L102.641 130.193L102.292 129.889C100.762 132.537 99.2576 133.812 97.9399 134.786C97.5392 135.082 97.37 135.595 97.5219 136.066Z" fill="#F2BEB7"></path>
  <path d="M108.493 135.275C108.493 135.275 107.14 137.249 106.003 139.187C102.367 136.966 102.363 132.504 102.643 130.193L108.493 135.275Z" fill="#EDA8A2"></path>
  <path d="M108.655 137.82C108.655 137.82 99.8257 132.951 102.97 127.549C106.114 122.146 107.092 117.879 112.862 120.759C118.632 123.64 118.518 126.322 117.911 128.378C117.304 130.434 111.033 138.948 108.655 137.82Z" fill="#F2BEB7"></path>
  <path d="M119.403 125.227C118.999 122.828 117.769 122.6 116.912 122.76C113.651 117.416 108.324 119.501 108.324 119.501C105.479 123.04 101.365 123.644 101.365 123.644C101.365 123.644 102.39 125.533 106.611 126.703C107.901 127.06 109.364 126.843 110.776 126.373C107.847 127.991 104.784 128.611 104.784 128.611C110.347 129.115 115.64 124.075 116.189 123.536C116.446 124.317 116.896 125.953 116.627 127.148C116.261 128.773 116.328 130.193 115.694 132.096C115.694 132.096 120.01 128.825 119.403 125.227Z" fill="#4A190C"></path>
  <path d="M127.946 180.914C127.946 180.914 127.802 180.832 127.458 181.425C127.177 181.911 127.029 181.871 126.242 182.34C124.767 183.219 125.752 184.277 127.112 184.808C128.085 185.188 128.682 184.577 128.781 184.195C128.953 183.526 129.163 182.107 127.946 180.914Z" fill="#F2BEB7"></path>
  <path d="M123.436 181.624C123.436 181.624 124.724 182.579 125.885 180.876C126.132 180.515 127.137 180.273 127.296 180.158C127.814 179.781 127.989 179.51 127.892 179.305C127.845 179.208 127.723 179.169 127.611 179.211C127.266 179.339 126.319 179.635 124.992 179.62C124.728 179.617 123.99 180.007 123.891 180.101C123.57 180.404 122.957 181.431 123.436 181.624Z" fill="#F2BEB7"></path>
  <path d="M185.307 190.521H206.805C212.097 190.521 216.264 191.963 218.91 194.586C221.026 196.683 222.085 199.24 222.085 202.518C222.085 207.697 219.306 210.581 215.999 212.417C221.357 214.449 224.664 217.53 224.664 223.823C224.664 232.215 217.785 236.41 207.334 236.41H185.307V190.521ZM204.622 209.074C209.12 209.074 211.964 207.631 211.964 204.091C211.964 201.076 209.583 199.371 205.283 199.371H195.229V209.074H204.622ZM207.334 227.56C211.832 227.56 214.544 225.987 214.544 222.447C214.544 219.366 212.229 217.465 207.003 217.465H195.228V227.56H207.334Z" fill="#63AAB4"></path>
  <path d="M233.063 190.521H244.043L256.215 209.926L268.386 190.521H279.366V236.41H269.245V206.451L256.214 226.053H255.95L243.051 206.648V236.41H233.062L233.063 190.521Z" fill="#63AAB4"></path>
  <path d="M290.941 190.521H301.128V236.41H290.941V190.521Z" fill="#63AAB4"></path>
  <path d="M442.473 264.599H0.526974C0.237096 264.599 0 264.364 0 264.077V263.838C0 263.551 0.237096 263.316 0.526974 263.316H442.473C442.763 263.316 443 263.551 443 263.838V264.077C443 264.364 442.763 264.599 442.473 264.599Z" fill="#333333"></path>
</svg>
